# xmcd
#
# Track frame offsets:
#	150
#	16522
#	33558
#	44538
#	60568
#	79501
#	97545
#	115033
#	127757
#	138320
#	157569
#	174975
#	190707
#	204517
#	216593
#	229971
#	248989
#	268750
#
# Disc length: 3836 seconds
#
# Revision: 1
# Processed by: cddbd v1.4PL0 Copyright (c) Steve Scherf et al.
# Submitted via: audiograbber 1.81.03
#
DISCID=df0efa12
DTITLE=Various Artist - Hott Country 79
DYEAR=2002
DGENRE=Country
TTITLE0=Lonestar - Unusually Unusual
TTITLE1=Adam Gregory - The World Could Use A Cowboy
TTITLE2=Dwight Yoakam - Sitting Pretty
TTITLE3=Aaron Lines - You Can't Hide Beautiful
TTITLE4=Trisha Yearwood - I Don't Paint Myself Into Corners
TTITLE5=Brad Paisley - I Wish You'd Stay
TTITLE6=Kellie Coffey - At The End Of The Day
TTITLE7=EmersoDrive - Fall Into Me
TTITLE8=Deryl Dodd - Honky Tonk Champagne
TTITLE9=Jack Ingram - One Thing
TTITLE10=Michael Peterson - Modern Man
TTITLE11=Kathy Mattea - They Are The Roses
TTITLE12=Marie Sisters - Real Bad Mood
TTITLE13=Dean Miller - Love Is A Game
TTITLE14=Rhonda Vincent - I'm Not Over You
TTITLE15=Heather Myles - Never Had A Broken Heart
TTITLE16=Tift Merritt - Virginia No One Can Harm You
TTITLE17=Allison Moorer - Cold In California
EXTD=
EXTT0=
EXTT1=
EXTT2=
EXTT3=
EXTT4=
EXTT5=
EXTT6=
EXTT7=
EXTT8=
EXTT9=
EXTT10=
EXTT11=
EXTT12=
EXTT13=
EXTT14=
EXTT15=
EXTT16=
EXTT17=
PLAYORDER=
